<svg width="1103" height="238" viewBox="0 0 1103 238" fill="none" xmlns="http://www.w3.org/2000/svg">
<path d="M109.557 237.096C44.9548 237.096 0 189.144 0 118.548C0 47.952 43.6228 0 111.222 0C162.837 0 201.798 29.97 209.79 77.922H178.821C170.829 45.621 145.854 26.64 110.556 26.64C61.6049 26.64 29.637 64.602 29.637 118.548C29.637 172.494 61.6049 210.456 109.89 210.456C152.847 210.456 183.816 184.815 183.816 143.523V135.531H113.886V108.891H212.121V235.098H187.146L185.148 201.132C174.492 218.115 149.517 237.096 109.557 237.096Z" fill="black"/>
<path d="M332.024 65.268H339.683V91.908H326.031C290.399 91.908 280.742 121.545 280.742 148.518V235.098H253.436V65.268H277.079L280.742 90.909C288.735 77.922 301.721 65.268 332.024 65.268Z" fill="black"/>
<path d="M538.741 237.096C489.124 237.096 454.492 201.798 454.492 150.183C454.492 98.568 489.124 63.27 538.741 63.27C588.358 63.27 622.991 98.568 622.991 150.183C622.991 201.798 588.358 237.096 538.741 237.096ZM538.741 212.787C572.374 212.787 595.019 186.48 595.019 150.183C595.019 113.886 572.374 87.579 538.741 87.579C505.108 87.579 482.464 113.886 482.464 150.183C482.464 186.48 505.108 212.787 538.741 212.787Z" fill="black"/>
<path d="M846.778 63.27C885.073 63.27 915.376 84.249 915.376 140.526V235.098H888.07V142.191C888.07 106.893 871.753 88.245 842.116 88.245C810.148 88.245 790.833 111.888 790.833 150.183V235.098H763.527V65.268H787.17L790.833 88.245C800.823 75.258 818.14 63.27 846.778 63.27Z" fill="black"/>
<path d="M1075.45 91.242V1.99799H1102.75V235.098H1079.11L1075.45 207.792C1064.12 223.443 1045.81 237.096 1017.17 237.096C970.217 237.096 935.585 205.461 935.585 150.183C935.585 98.235 970.217 63.27 1017.17 63.27C1045.81 63.27 1065.12 74.925 1075.45 91.242ZM1019.83 212.787C1053.13 212.787 1075.78 187.146 1075.78 150.849C1075.78 113.553 1053.13 87.579 1019.83 87.579C986.201 87.579 963.557 113.22 963.557 150.183C963.557 187.146 986.201 212.787 1019.83 212.787Z" fill="black"/>
<path d="M746.492 153.956L595.992 234.598C648.992 183.598 650.992 120.598 603.242 74.0979L746.492 153.956Z" fill="black"/>
<path d="M323.992 154.74L474.492 74.0979C425.992 111.098 427.492 197.098 474.492 234.598L323.992 154.74Z" fill="black"/>
</svg>
